<svg width="24" height="25" viewBox="0 0 24 25" fill="none" xmlns="http://www.w3.org/2000/svg">
<g clip-path="url(#clip0_560_13553)">
<path d="M20.8426 17.5362C20.5099 18.3048 20.1161 19.0123 19.6598 19.6628C19.0378 20.5495 18.5286 21.1633 18.1361 21.5042C17.5277 22.0637 16.8759 22.3502 16.1779 22.3665C15.6768 22.3665 15.0725 22.2239 14.3691 21.9347C13.6633 21.6468 13.0148 21.5042 12.4217 21.5042C11.7998 21.5042 11.1327 21.6468 10.4193 21.9347C9.70469 22.2239 9.12904 22.3747 8.68892 22.3896C8.01957 22.4181 7.35239 22.1234 6.68644 21.5042C6.26139 21.1335 5.72974 20.4979 5.09285 19.5976C4.40951 18.6361 3.84772 17.5212 3.4076 16.2501C2.93624 14.8772 2.69995 13.5478 2.69995 12.2607C2.69995 10.7863 3.01853 9.51469 3.65665 8.44908C4.15815 7.59314 4.82533 6.91795 5.66035 6.42229C6.49537 5.92662 7.39761 5.67404 8.36925 5.65788C8.9009 5.65788 9.59809 5.82233 10.4645 6.14553C11.3284 6.46982 11.8832 6.63427 12.1264 6.63427C12.3082 6.63427 12.9245 6.44198 13.9692 6.05862C14.9571 5.7031 15.7909 5.55589 16.474 5.61388C18.3249 5.76326 19.7155 6.4929 20.6402 7.80743C18.9849 8.81044 18.166 10.2153 18.1823 12.0174C18.1972 13.4212 18.7065 14.5893 19.7073 15.5168C20.1609 15.9473 20.6674 16.28 21.231 16.5163C21.1087 16.8707 20.9797 17.2102 20.8426 17.5362ZM16.5975 0.831605C16.5975 1.93186 16.1956 2.95916 15.3944 3.91002C14.4275 5.0404 13.258 5.69359 11.9898 5.59052C11.9736 5.45853 11.9642 5.3196 11.9642 5.17362C11.9642 4.11738 12.424 2.987 13.2406 2.06275C13.6483 1.59479 14.1667 1.20569 14.7955 0.895294C15.4229 0.58953 16.0163 0.420436 16.5744 0.391479C16.5907 0.538566 16.5975 0.685662 16.5975 0.831591V0.831605Z" fill="white"/>
</g>
<defs>
<clipPath id="clip0_560_13553">
<rect width="24" height="24" fill="white" transform="translate(0 0.391235)"/>
</clipPath>
</defs>
</svg>
