<svg width="24" height="24" viewBox="0 0 24 24" fill="none" xmlns="http://www.w3.org/2000/svg">
<g id="CaretDown">
<path id="Vector" d="M20.0306 9.53055L12.5306 17.0306C12.4609 17.1003 12.3782 17.1556 12.2871 17.1933C12.1961 17.2311 12.0985 17.2505 11.9999 17.2505C11.9014 17.2505 11.8038 17.2311 11.7127 17.1933C11.6217 17.1556 11.539 17.1003 11.4693 17.0306L3.9693 9.53055C3.82857 9.38982 3.74951 9.19895 3.74951 8.99993C3.74951 8.80091 3.82857 8.61003 3.9693 8.4693C4.11003 8.32857 4.30091 8.24951 4.49993 8.24951C4.69895 8.24951 4.88982 8.32857 5.03055 8.4693L11.9999 15.4396L18.9693 8.4693C19.039 8.39962 19.1217 8.34435 19.2128 8.30663C19.3038 8.26892 19.4014 8.24951 19.4999 8.24951C19.5985 8.24951 19.6961 8.26892 19.7871 8.30663C19.8781 8.34435 19.9609 8.39962 20.0306 8.4693C20.1002 8.53899 20.1555 8.62171 20.1932 8.71276C20.2309 8.8038 20.2503 8.90138 20.2503 8.99993C20.2503 9.09847 20.2309 9.19606 20.1932 9.2871C20.1555 9.37815 20.1002 9.46087 20.0306 9.53055Z" fill="#1877F2"/>
</g>
</svg>
