<svg width="25" height="25" viewBox="0 0 25 25" fill="none" xmlns="http://www.w3.org/2000/svg">
<path d="M21.5 4.60864H3.5C3.30109 4.60864 3.11032 4.68766 2.96967 4.82831C2.82902 4.96896 2.75 5.15973 2.75 5.35864V18.1086C2.75 18.5065 2.90804 18.888 3.18934 19.1693C3.47064 19.4506 3.85218 19.6086 4.25 19.6086H20.75C21.1478 19.6086 21.5294 19.4506 21.8107 19.1693C22.092 18.888 22.25 18.5065 22.25 18.1086V5.35864C22.25 5.15973 22.171 4.96896 22.0303 4.82831C21.8897 4.68766 21.6989 4.60864 21.5 4.60864ZM19.5716 6.10864L12.5 12.5915L5.42844 6.10864H19.5716ZM20.75 18.1086H4.25V7.06396L11.9928 14.1618C12.1312 14.2888 12.3122 14.3593 12.5 14.3593C12.6878 14.3593 12.8688 14.2888 13.0072 14.1618L20.75 7.06396V18.1086Z" fill="#8B8985"/>
</svg>
