<svg width="25" height="25" viewBox="0 0 25 25" fill="none" xmlns="http://www.w3.org/2000/svg">
<g clip-path="url(#clip0_560_13548)">
<path d="M24.5 12.3912C24.5 5.76381 19.1274 0.391235 12.5 0.391235C5.87258 0.391235 0.5 5.76381 0.5 12.3912C0.5 18.3807 4.8882 23.3452 10.625 24.2455V15.86H7.57812V12.3912H10.625V9.74749C10.625 6.73999 12.4166 5.07874 15.1576 5.07874C16.4701 5.07874 17.8438 5.31311 17.8438 5.31311V8.26624H16.3306C14.84 8.26624 14.375 9.19131 14.375 10.1412V12.3912H17.7031L17.1711 15.86H14.375V24.2455C20.1118 23.3452 24.5 18.3807 24.5 12.3912Z" fill="white"/>
</g>
<defs>
<clipPath id="clip0_560_13548">
<rect width="24" height="24" fill="white" transform="translate(0.5 0.391235)"/>
</clipPath>
</defs>
</svg>
