<svg width="174" height="35" viewBox="0 0 174 35" fill="none" xmlns="http://www.w3.org/2000/svg">
<path d="M87.6851 15.1205V3.98637C87.6851 3.07914 87.8431 2.35748 88.1593 1.82139C88.4755 1.27155 88.9153 0.879795 89.4789 0.646116C90.0562 0.39869 90.716 0.274977 91.4583 0.274977H92.7779V2.89357H91.9532C91.527 2.89357 91.2246 2.97604 91.0459 3.14099C90.8672 3.30594 90.7779 3.58774 90.7779 3.98637V15.1205H87.6851ZM86.3242 7.306V4.72864H92.9222V7.306H86.3242Z" fill="#767676"/>
<path d="M94.7137 15.1205V4.72864H97.8065V15.1205H94.7137ZM96.2601 3.53275C95.7102 3.53275 95.2635 3.37467 94.9199 3.05852C94.5762 2.74236 94.4044 2.34373 94.4044 1.86263C94.4044 1.36777 94.5762 0.962271 94.9199 0.646116C95.2635 0.32996 95.7102 0.171883 96.2601 0.171883C96.8237 0.171883 97.2773 0.32996 97.6209 0.646116C97.9783 0.962271 98.157 1.36777 98.157 1.86263C98.157 2.34373 97.9783 2.74236 97.6209 3.05852C97.2773 3.37467 96.8237 3.53275 96.2601 3.53275Z" fill="#767676"/>
<path d="M100.12 15.1205V4.72864H102.821L103.068 6.39877C103.384 5.82144 103.831 5.36095 104.408 5.01731C104.986 4.65991 105.687 4.48122 106.511 4.48122C107.377 4.48122 108.106 4.66679 108.697 5.03793C109.288 5.40907 109.735 5.94515 110.037 6.64619C110.353 7.33349 110.511 8.17886 110.511 9.18231V15.1205H107.439V9.47097C107.439 8.71495 107.274 8.13075 106.944 7.71837C106.628 7.29225 106.12 7.07919 105.419 7.07919C105.006 7.07919 104.628 7.18228 104.285 7.38847C103.955 7.58091 103.693 7.86271 103.501 8.23384C103.309 8.60498 103.212 9.05173 103.212 9.57407V15.1205H100.12Z" fill="#767676"/>
<path d="M117.293 15.368C116.372 15.368 115.534 15.1343 114.778 14.6669C114.035 14.1996 113.444 13.5604 113.004 12.7494C112.578 11.9246 112.365 10.9899 112.365 9.94521C112.365 8.88677 112.585 7.95205 113.025 7.14105C113.465 6.31629 114.063 5.67024 114.819 5.20288C115.589 4.72177 116.441 4.48122 117.376 4.48122C118.09 4.48122 118.716 4.6118 119.252 4.87298C119.788 5.1204 120.228 5.48467 120.571 5.96577V0.274977H123.664V15.1205H120.922L120.571 13.7803C120.365 14.069 120.111 14.337 119.809 14.5844C119.52 14.8181 119.169 15.0037 118.757 15.1412C118.345 15.2924 117.857 15.368 117.293 15.368ZM118.097 12.6669C118.606 12.6669 119.053 12.5501 119.437 12.3164C119.836 12.0827 120.138 11.7597 120.345 11.3473C120.565 10.9349 120.675 10.4607 120.675 9.92459C120.675 9.3885 120.565 8.91427 120.345 8.50189C120.138 8.08951 119.836 7.76649 119.437 7.5328C119.053 7.29912 118.606 7.18228 118.097 7.18228C117.602 7.18228 117.156 7.29912 116.757 7.5328C116.372 7.76649 116.07 8.08951 115.85 8.50189C115.63 8.91427 115.52 9.38163 115.52 9.90397C115.52 10.4401 115.63 10.9212 115.85 11.3473C116.07 11.7597 116.372 12.0827 116.757 12.3164C117.156 12.5501 117.602 12.6669 118.097 12.6669Z" fill="#767676"/>
<path d="M131.555 19.6567L134.049 13.9659H133.431L129.245 4.72864H132.606L135.472 11.0586L137.864 4.72864H141.184L134.833 19.6567H131.555Z" fill="#767676"/>
<path d="M146.651 15.368C145.647 15.368 144.747 15.1343 143.95 14.6669C143.152 14.1996 142.52 13.5604 142.053 12.7494C141.585 11.9246 141.352 10.9899 141.352 9.94521C141.352 8.87303 141.585 7.93144 142.053 7.12043C142.52 6.29568 143.152 5.64962 143.95 5.18226C144.761 4.7149 145.661 4.48122 146.651 4.48122C147.668 4.48122 148.575 4.7149 149.372 5.18226C150.17 5.64962 150.802 6.29568 151.269 7.12043C151.737 7.93144 151.97 8.86616 151.97 9.92459C151.97 10.983 151.737 11.9246 151.269 12.7494C150.802 13.5604 150.17 14.1996 149.372 14.6669C148.575 15.1343 147.668 15.368 146.651 15.368ZM146.651 12.6875C147.063 12.6875 147.427 12.5844 147.743 12.3782C148.073 12.172 148.334 11.8628 148.527 11.4504C148.719 11.038 148.816 10.5294 148.816 9.92459C148.816 9.31977 148.719 8.81117 148.527 8.3988C148.334 7.98642 148.08 7.67714 147.764 7.47095C147.448 7.26476 147.084 7.16167 146.671 7.16167C146.259 7.16167 145.888 7.26476 145.558 7.47095C145.242 7.67714 144.987 7.98642 144.795 8.3988C144.602 8.81117 144.506 9.31977 144.506 9.92459C144.506 10.5294 144.602 11.038 144.795 11.4504C144.987 11.8628 145.242 12.172 145.558 12.3782C145.888 12.5844 146.252 12.6875 146.651 12.6875Z" fill="#767676"/>
<path d="M157.851 15.368C156.985 15.368 156.25 15.1893 155.645 14.8319C155.054 14.4745 154.601 13.9521 154.284 13.2648C153.982 12.5638 153.831 11.7116 153.831 10.7081V4.72864H156.924V10.3988C156.924 11.1686 157.082 11.7597 157.398 12.172C157.714 12.5707 158.223 12.77 158.924 12.77C159.35 12.77 159.728 12.6738 160.058 12.4813C160.401 12.2889 160.662 12.0071 160.841 11.636C161.034 11.2648 161.13 10.8112 161.13 10.2751V4.72864H164.223V15.1205H161.522L161.274 13.471C160.972 14.0346 160.532 14.4951 159.955 14.8525C159.377 15.1961 158.676 15.368 157.851 15.368Z" fill="#767676"/>
<path d="M166.489 15.1205V4.72864H169.231L169.52 6.62558C169.795 6.18571 170.118 5.8077 170.489 5.49154C170.86 5.17539 171.286 4.92796 171.767 4.74926C172.262 4.57057 172.791 4.48122 173.355 4.48122V7.75961H172.324C171.912 7.75961 171.534 7.80772 171.19 7.90394C170.86 7.98642 170.571 8.13075 170.324 8.33694C170.09 8.54313 169.905 8.82492 169.767 9.18231C169.643 9.52596 169.582 9.95895 169.582 10.4813V15.1205H166.489Z" fill="#767676"/>
<path d="M90.7985 33.6958C89.9325 33.6958 89.2109 33.5583 88.6335 33.2834C88.0699 33.0085 87.6507 32.6374 87.3758 32.17C87.1146 31.6889 86.984 31.1597 86.984 30.5824C86.984 29.9638 87.1352 29.4208 87.4376 28.9535C87.7538 28.4724 88.2418 28.0944 88.9016 27.8194C89.5614 27.5308 90.393 27.3864 91.3965 27.3864H93.9119C93.9119 26.9191 93.8501 26.5342 93.7264 26.2318C93.6164 25.9294 93.4308 25.7026 93.1697 25.5514C92.9085 25.4002 92.5511 25.3246 92.0975 25.3246C91.6164 25.3246 91.2109 25.4208 90.881 25.6132C90.5511 25.8057 90.3449 26.1081 90.2624 26.5205H87.2933C87.362 25.7782 87.6026 25.1321 88.015 24.5823C88.4411 24.0324 89.0047 23.5995 89.7057 23.2833C90.4067 22.9671 91.2109 22.8091 92.1181 22.8091C93.1078 22.8091 93.9669 22.974 94.6955 23.3039C95.424 23.6201 95.9876 24.0874 96.3862 24.706C96.7986 25.3246 97.0048 26.0943 97.0048 27.0153V33.4484H94.4274L94.0563 31.9432C93.9051 32.2044 93.7264 32.4449 93.5202 32.6649C93.314 32.8711 93.0734 33.0566 92.7985 33.2216C92.5236 33.3728 92.2212 33.4896 91.8913 33.5721C91.5614 33.6546 91.1971 33.6958 90.7985 33.6958ZM91.5614 31.3453C91.8913 31.3453 92.18 31.2903 92.4274 31.1803C92.6748 31.0703 92.8879 30.9191 93.0666 30.7267C93.2453 30.5343 93.3896 30.3143 93.4996 30.0669C93.6233 29.8057 93.7126 29.5239 93.7676 29.2215V29.2009H91.7676C91.4239 29.2009 91.1353 29.249 90.9016 29.3452C90.6817 29.4277 90.5167 29.5514 90.4067 29.7164C90.2968 29.8813 90.2418 30.0738 90.2418 30.2937C90.2418 30.5274 90.2968 30.7267 90.4067 30.8916C90.5305 31.0429 90.6885 31.1597 90.881 31.2422C91.0872 31.3109 91.314 31.3453 91.5614 31.3453Z" fill="#767676"/>
<path d="M99.1627 33.4484V23.0565H101.905L102.194 24.9534C102.469 24.5136 102.792 24.1355 103.163 23.8194C103.534 23.5032 103.96 23.2558 104.441 23.0771C104.936 22.8984 105.465 22.8091 106.029 22.8091V26.0875H104.998C104.585 26.0875 104.207 26.1356 103.864 26.2318C103.534 26.3143 103.245 26.4586 102.998 26.6648C102.764 26.871 102.579 27.1528 102.441 27.5102C102.317 27.8538 102.255 28.2868 102.255 28.8091V33.4484H99.1627Z" fill="#767676"/>
<path d="M112.275 33.4484C111.519 33.4484 110.852 33.3315 110.275 33.0979C109.697 32.8504 109.251 32.4518 108.934 31.902C108.618 31.3521 108.46 30.603 108.46 29.6545V25.6338H106.687V23.0565H108.46L108.79 20.1286H111.553V23.0565H114.213V25.6338H111.553V29.6958C111.553 30.1081 111.642 30.4037 111.821 30.5824C112.013 30.7473 112.336 30.8298 112.79 30.8298H114.213V33.4484H112.275Z" fill="#767676"/>
<path d="M119.625 27.5561V23.5753H120.043L120.082 24.0261C120.141 23.9382 120.216 23.8557 120.307 23.7787C120.399 23.6981 120.509 23.6339 120.637 23.5863C120.765 23.535 120.912 23.5093 121.077 23.5093C121.348 23.5093 121.583 23.5734 121.781 23.7017C121.982 23.83 122.138 24.0042 122.248 24.2241C122.362 24.4404 122.419 24.6878 122.419 24.9664C122.419 25.2449 122.362 25.4942 122.248 25.7141C122.138 25.9304 121.982 26.1009 121.781 26.2255C121.579 26.3501 121.343 26.4124 121.072 26.4124C120.848 26.4124 120.65 26.3666 120.478 26.275C120.309 26.1833 120.179 26.055 120.087 25.8901V27.5561H119.625ZM121.022 26.0111C121.202 26.0111 121.361 25.9671 121.5 25.8791C121.64 25.7911 121.748 25.6702 121.825 25.5162C121.905 25.3586 121.946 25.1735 121.946 24.9609C121.946 24.7519 121.905 24.5687 121.825 24.411C121.748 24.2534 121.64 24.1306 121.5 24.0426C121.361 23.9547 121.202 23.9107 121.022 23.9107C120.839 23.9107 120.678 23.9547 120.538 24.0426C120.399 24.1306 120.291 24.2534 120.214 24.411C120.137 24.5687 120.098 24.7519 120.098 24.9609C120.098 25.1735 120.137 25.3586 120.214 25.5162C120.291 25.6702 120.399 25.7911 120.538 25.8791C120.678 25.9671 120.839 26.0111 121.022 26.0111Z" fill="#767676"/>
<path d="M124.304 26.4124C124.048 26.4124 123.817 26.3538 123.612 26.2365C123.406 26.1155 123.245 25.9469 123.128 25.7306C123.011 25.5107 122.952 25.2559 122.952 24.9664C122.952 24.6695 123.011 24.4129 123.128 24.1966C123.249 23.9767 123.412 23.808 123.617 23.6907C123.826 23.5698 124.059 23.5093 124.315 23.5093C124.579 23.5093 124.812 23.5698 125.014 23.6907C125.219 23.808 125.38 23.9767 125.498 24.1966C125.619 24.4129 125.679 24.6676 125.679 24.9609C125.679 25.2541 125.619 25.5107 125.498 25.7306C125.377 25.9469 125.214 26.1155 125.008 26.2365C124.803 26.3538 124.568 26.4124 124.304 26.4124ZM124.31 26.0166C124.468 26.0166 124.614 25.9781 124.75 25.9011C124.885 25.8204 124.995 25.7013 125.08 25.5437C125.164 25.3861 125.206 25.1918 125.206 24.9609C125.206 24.7263 125.164 24.532 125.08 24.378C124.999 24.2204 124.891 24.1031 124.755 24.0261C124.623 23.9455 124.477 23.9052 124.315 23.9052C124.162 23.9052 124.015 23.9455 123.876 24.0261C123.74 24.1031 123.63 24.2204 123.546 24.378C123.465 24.532 123.425 24.7263 123.425 24.9609C123.425 25.1918 123.465 25.3861 123.546 25.5437C123.63 25.7013 123.738 25.8204 123.87 25.9011C124.006 25.9781 124.152 26.0166 124.31 26.0166Z" fill="#767676"/>
<path d="M126.785 26.3465L125.972 23.5753H126.434L127.066 25.9121H126.983L127.671 23.5753H128.193L128.891 25.9066L128.803 25.9121L129.43 23.5753H129.897L129.089 26.3465H128.616L127.891 23.9052H127.984L127.258 26.3465H126.785Z" fill="#767676"/>
<path d="M131.531 26.4124C131.271 26.4124 131.04 26.352 130.838 26.231C130.641 26.11 130.485 25.9414 130.371 25.7251C130.257 25.5052 130.201 25.2504 130.201 24.9609C130.201 24.6676 130.256 24.4129 130.366 24.1966C130.479 23.9803 130.637 23.8117 130.838 23.6907C131.044 23.5698 131.278 23.5093 131.542 23.5093C131.814 23.5093 132.043 23.5698 132.23 23.6907C132.42 23.8117 132.565 23.9712 132.664 24.1691C132.767 24.3634 132.818 24.5778 132.818 24.8124C132.818 24.8491 132.818 24.8876 132.818 24.9279C132.818 24.9682 132.816 25.014 132.812 25.0653H130.547V24.7079H132.367C132.356 24.455 132.272 24.2571 132.114 24.1141C131.96 23.9712 131.766 23.8997 131.531 23.8997C131.374 23.8997 131.227 23.9363 131.091 24.0097C130.959 24.0793 130.853 24.1838 130.773 24.3231C130.692 24.4587 130.652 24.6291 130.652 24.8344V24.9884C130.652 25.2156 130.692 25.4062 130.773 25.5602C130.857 25.7141 130.965 25.8296 131.097 25.9066C131.233 25.9836 131.377 26.0221 131.531 26.0221C131.726 26.0221 131.885 25.9799 132.01 25.8956C132.138 25.8076 132.23 25.6903 132.285 25.5437H132.741C132.697 25.7086 132.62 25.8571 132.51 25.9891C132.4 26.121 132.263 26.2255 132.098 26.3025C131.936 26.3758 131.748 26.4124 131.531 26.4124Z" fill="#767676"/>
<path d="M133.441 26.3465V23.5753H133.859L133.892 24.1031C133.954 23.9785 134.033 23.8722 134.128 23.7842C134.227 23.6962 134.345 23.6284 134.48 23.5808C134.62 23.5331 134.777 23.5093 134.953 23.5093V23.9932H134.783C134.665 23.9932 134.554 24.0097 134.447 24.0426C134.341 24.072 134.246 24.1215 134.161 24.1911C134.081 24.2607 134.017 24.356 133.969 24.477C133.925 24.5943 133.903 24.7409 133.903 24.9169V26.3465H133.441Z" fill="#767676"/>
<path d="M136.589 26.4124C136.329 26.4124 136.098 26.352 135.897 26.231C135.699 26.11 135.543 25.9414 135.429 25.7251C135.316 25.5052 135.259 25.2504 135.259 24.9609C135.259 24.6676 135.314 24.4129 135.424 24.1966C135.537 23.9803 135.695 23.8117 135.897 23.6907C136.102 23.5698 136.336 23.5093 136.6 23.5093C136.872 23.5093 137.101 23.5698 137.288 23.6907C137.478 23.8117 137.623 23.9712 137.722 24.1691C137.825 24.3634 137.876 24.5778 137.876 24.8124C137.876 24.8491 137.876 24.8876 137.876 24.9279C137.876 24.9682 137.874 25.014 137.87 25.0653H135.605V24.7079H137.425C137.414 24.455 137.33 24.2571 137.172 24.1141C137.018 23.9712 136.824 23.8997 136.589 23.8997C136.432 23.8997 136.285 23.9363 136.149 24.0097C136.018 24.0793 135.911 24.1838 135.831 24.3231C135.75 24.4587 135.71 24.6291 135.71 24.8344V24.9884C135.71 25.2156 135.75 25.4062 135.831 25.5602C135.915 25.7141 136.023 25.8296 136.155 25.9066C136.291 25.9836 136.435 26.0221 136.589 26.0221C136.784 26.0221 136.943 25.9799 137.068 25.8956C137.196 25.8076 137.288 25.6903 137.343 25.5437H137.799C137.755 25.7086 137.678 25.8571 137.568 25.9891C137.458 26.121 137.321 26.2255 137.156 26.3025C136.994 26.3758 136.806 26.4124 136.589 26.4124Z" fill="#767676"/>
<path d="M139.72 26.4124C139.452 26.4124 139.218 26.3501 139.016 26.2255C138.814 26.0972 138.659 25.9231 138.549 25.7031C138.439 25.4832 138.384 25.234 138.384 24.9554C138.384 24.6768 138.439 24.4294 138.549 24.2131C138.659 23.9932 138.814 23.8209 139.016 23.6962C139.221 23.5716 139.458 23.5093 139.725 23.5093C139.953 23.5093 140.151 23.5551 140.319 23.6468C140.491 23.7384 140.623 23.8667 140.715 24.0316V22.3876H141.177V26.3465H140.759L140.721 25.8901C140.662 25.9817 140.587 26.0679 140.495 26.1485C140.404 26.2255 140.294 26.2896 140.165 26.341C140.037 26.3886 139.888 26.4124 139.72 26.4124ZM139.775 26.0111C139.958 26.0111 140.119 25.9671 140.259 25.8791C140.398 25.7911 140.506 25.6702 140.583 25.5162C140.66 25.3586 140.699 25.1735 140.699 24.9609C140.699 24.7519 140.66 24.5687 140.583 24.411C140.506 24.2534 140.398 24.1306 140.259 24.0426C140.119 23.9547 139.958 23.9107 139.775 23.9107C139.595 23.9107 139.436 23.9547 139.297 24.0426C139.157 24.1306 139.049 24.2534 138.972 24.411C138.895 24.5687 138.857 24.7519 138.857 24.9609C138.857 25.1735 138.895 25.3586 138.972 25.5162C139.049 25.6702 139.157 25.7911 139.297 25.8791C139.436 25.9671 139.595 26.0111 139.775 26.0111Z" fill="#767676"/>
<path d="M144.859 26.4124C144.701 26.4124 144.558 26.3904 144.43 26.3465C144.305 26.2988 144.195 26.2365 144.1 26.1595C144.004 26.0825 143.926 25.9927 143.863 25.8901L143.825 26.3465H143.407V22.3876H143.869V24.0316C143.957 23.8887 144.083 23.7659 144.248 23.6633C144.413 23.5606 144.617 23.5093 144.859 23.5093C145.126 23.5093 145.361 23.5734 145.562 23.7017C145.764 23.8264 145.92 23.9987 146.03 24.2186C146.143 24.4349 146.2 24.6823 146.2 24.9609C146.2 25.2395 146.143 25.4887 146.03 25.7086C145.92 25.9286 145.764 26.1009 145.562 26.2255C145.361 26.3501 145.126 26.4124 144.859 26.4124ZM144.804 26.0111C144.983 26.0111 145.143 25.9671 145.282 25.8791C145.421 25.7911 145.529 25.6702 145.606 25.5162C145.687 25.3586 145.727 25.1735 145.727 24.9609C145.727 24.7519 145.687 24.5687 145.606 24.411C145.529 24.2534 145.421 24.1306 145.282 24.0426C145.143 23.9547 144.983 23.9107 144.804 23.9107C144.62 23.9107 144.459 23.9547 144.32 24.0426C144.18 24.1306 144.072 24.2534 143.995 24.411C143.918 24.5687 143.88 24.7519 143.88 24.9609C143.88 25.1735 143.918 25.3586 143.995 25.5162C144.072 25.6702 144.18 25.7911 144.32 25.8791C144.459 25.9671 144.62 26.0111 144.804 26.0111Z" fill="#767676"/>
<path d="M146.931 27.5561L147.607 26.0385H147.448L146.359 23.5753H146.86L147.761 25.6921L148.707 23.5753H149.185L147.415 27.5561H146.931Z" fill="#767676"/>
<path d="M121.352 33.5145C120.967 33.5145 120.635 33.432 120.357 33.267C120.078 33.0984 119.864 32.8657 119.713 32.5688C119.563 32.2682 119.488 31.9236 119.488 31.5351C119.488 31.1392 119.563 30.7928 119.713 30.4959C119.864 30.1953 120.078 29.9607 120.357 29.7921C120.635 29.6198 120.967 29.5337 121.352 29.5337C121.829 29.5337 122.217 29.6528 122.518 29.8911C122.822 30.1293 123.011 30.4647 123.084 30.8973H122.182C122.138 30.703 122.045 30.5527 121.902 30.4464C121.759 30.3364 121.574 30.2814 121.346 30.2814C121.13 30.2814 120.945 30.3328 120.791 30.4354C120.641 30.538 120.525 30.6828 120.445 30.8698C120.368 31.053 120.329 31.2748 120.329 31.5351C120.329 31.788 120.368 32.0079 120.445 32.1949C120.525 32.3781 120.641 32.5211 120.791 32.6237C120.945 32.7227 121.13 32.7722 121.346 32.7722C121.574 32.7722 121.757 32.7245 121.896 32.6292C122.039 32.5303 122.135 32.3891 122.182 32.2059H123.084C123.011 32.6127 122.822 32.9335 122.518 33.1681C122.217 33.399 121.829 33.5145 121.352 33.5145Z" fill="#767676"/>
<path d="M126.004 33.4485V29.5996H126.829V33.4485H126.004ZM123.591 33.4485V29.5996H124.415V33.4485H123.591ZM124.311 31.8155V31.1502H126.136V31.8155H124.311Z" fill="#767676"/>
<path d="M127.196 33.4485L128.598 29.5996H129.543L130.945 33.4485H130.071L129.065 30.5289L128.059 33.4485H127.196ZM127.806 32.6072L128.026 31.9694H130.044L130.258 32.6072H127.806Z" fill="#767676"/>
<path d="M131.312 33.4485V29.5996H132.137L133.825 32.1289V29.5996H134.65V33.4485H133.825L132.137 30.9302V33.4485H131.312Z" fill="#767676"/>
<path d="M136.977 33.5145C136.61 33.5145 136.289 33.4338 136.014 33.2725C135.743 33.1076 135.532 32.8785 135.382 32.5853C135.232 32.292 135.157 31.9493 135.157 31.5571C135.157 31.1612 135.234 30.8111 135.388 30.5069C135.545 30.2026 135.771 29.9644 136.064 29.7921C136.357 29.6198 136.707 29.5337 137.114 29.5337C137.572 29.5337 137.952 29.6436 138.252 29.8636C138.556 30.0835 138.753 30.3877 138.841 30.7763H137.922C137.867 30.6223 137.77 30.5032 137.631 30.4189C137.495 30.3346 137.321 30.2924 137.109 30.2924C136.867 30.2924 136.663 30.3456 136.498 30.4519C136.333 30.5545 136.209 30.7011 136.124 30.8918C136.04 31.0787 135.998 31.3005 135.998 31.5571C135.998 31.821 136.04 32.0446 136.124 32.2279C136.209 32.4111 136.331 32.5504 136.493 32.6457C136.654 32.7374 136.845 32.7832 137.065 32.7832C137.38 32.7832 137.618 32.7007 137.779 32.5358C137.944 32.3708 138.045 32.1637 138.082 31.9145H137.186V31.2986H138.907V33.4485H138.148L138.082 33.0031C138.005 33.1131 137.913 33.2066 137.807 33.2835C137.704 33.3605 137.583 33.4173 137.444 33.454C137.308 33.4943 137.153 33.5145 136.977 33.5145Z" fill="#767676"/>
<path d="M139.474 33.4485V29.5996H142.053V30.2649H140.299V31.1722H141.888V31.81H140.299V32.7832H142.053V33.4485H139.474Z" fill="#767676"/>
<path d="M144.662 33.5145C144.431 33.5145 144.238 33.4778 144.084 33.4045C143.934 33.3312 143.822 33.2322 143.749 33.1076C143.679 32.9793 143.644 32.8382 143.644 32.6842C143.644 32.5193 143.685 32.3745 143.765 32.2499C143.85 32.1216 143.98 32.0208 144.156 31.9474C144.332 31.8705 144.553 31.832 144.821 31.832H145.492C145.492 31.7073 145.475 31.6047 145.442 31.5241C145.413 31.4434 145.363 31.3829 145.294 31.3426C145.224 31.3023 145.129 31.2821 145.008 31.2821C144.88 31.2821 144.771 31.3078 144.684 31.3591C144.596 31.4104 144.541 31.4911 144.519 31.601H143.727C143.745 31.4031 143.809 31.2308 143.919 31.0842C144.033 30.9376 144.183 30.8221 144.37 30.7378C144.557 30.6535 144.771 30.6113 145.013 30.6113C145.277 30.6113 145.506 30.6553 145.701 30.7433C145.895 30.8276 146.045 30.9522 146.152 31.1172C146.262 31.2821 146.317 31.4874 146.317 31.733V33.4485H145.629L145.53 33.0471C145.49 33.1168 145.442 33.1809 145.387 33.2396C145.332 33.2945 145.268 33.344 145.195 33.388C145.122 33.4283 145.041 33.4595 144.953 33.4815C144.865 33.5035 144.768 33.5145 144.662 33.5145ZM144.865 32.8877C144.953 32.8877 145.03 32.873 145.096 32.8437C145.162 32.8144 145.219 32.774 145.266 32.7227C145.314 32.6714 145.352 32.6127 145.382 32.5468C145.415 32.4771 145.439 32.402 145.453 32.3213V32.3158H144.92C144.828 32.3158 144.751 32.3287 144.689 32.3543C144.63 32.3763 144.586 32.4093 144.557 32.4533C144.528 32.4973 144.513 32.5486 144.513 32.6072C144.513 32.6696 144.528 32.7227 144.557 32.7667C144.59 32.807 144.632 32.8382 144.684 32.8602C144.738 32.8785 144.799 32.8877 144.865 32.8877Z" fill="#767676"/>
<path d="M146.892 33.4485V30.6773H147.623L147.7 31.1832C147.774 31.0659 147.86 30.9651 147.959 30.8808C148.058 30.7965 148.171 30.7305 148.3 30.6828C148.432 30.6352 148.573 30.6113 148.723 30.6113V31.4856H148.448C148.338 31.4856 148.237 31.4984 148.146 31.5241C148.058 31.5461 147.981 31.5846 147.915 31.6395C147.852 31.6945 147.803 31.7697 147.766 31.865C147.733 31.9566 147.717 32.0721 147.717 32.2114V33.4485H146.892Z" fill="#767676"/>
<path d="M150.388 33.4485C150.187 33.4485 150.009 33.4173 149.855 33.355C149.701 33.289 149.582 33.1827 149.498 33.0361C149.413 32.8895 149.371 32.6897 149.371 32.4368V31.3646H148.898V30.6773H149.371L149.459 29.8966H150.196V30.6773H150.905V31.3646H150.196V32.4478C150.196 32.5578 150.22 32.6366 150.268 32.6842C150.319 32.7282 150.405 32.7502 150.526 32.7502H150.905V33.4485H150.388Z" fill="#767676"/>
<path d="M152.584 33.5145C152.324 33.5145 152.098 33.4742 151.908 33.3935C151.721 33.3092 151.572 33.1956 151.462 33.0526C151.356 32.9097 151.296 32.7484 151.281 32.5688H152.1C152.115 32.6311 152.141 32.6879 152.177 32.7392C152.217 32.7869 152.271 32.8253 152.337 32.8547C152.406 32.8803 152.483 32.8932 152.568 32.8932C152.659 32.8932 152.733 32.8822 152.787 32.8602C152.846 32.8345 152.89 32.8015 152.919 32.7612C152.949 32.7209 152.963 32.6787 152.963 32.6347C152.963 32.5651 152.941 32.5119 152.897 32.4753C152.857 32.4386 152.797 32.4093 152.716 32.3873C152.635 32.3617 152.538 32.3378 152.425 32.3158C152.293 32.2865 152.161 32.2535 152.029 32.2169C151.9 32.1765 151.785 32.1271 151.682 32.0684C151.583 32.0098 151.503 31.9346 151.44 31.843C151.382 31.7477 151.352 31.6322 151.352 31.4966C151.352 31.3316 151.398 31.1832 151.49 31.0512C151.582 30.9156 151.713 30.8093 151.886 30.7323C152.058 30.6517 152.267 30.6113 152.513 30.6113C152.861 30.6113 153.134 30.6883 153.332 30.8423C153.53 30.9962 153.647 31.2033 153.684 31.4636H152.914C152.892 31.3903 152.846 31.3353 152.776 31.2986C152.707 31.2583 152.619 31.2382 152.513 31.2382C152.392 31.2382 152.3 31.2583 152.238 31.2986C152.175 31.339 152.144 31.3921 152.144 31.4581C152.144 31.5021 152.164 31.5424 152.205 31.5791C152.249 31.612 152.311 31.6414 152.392 31.667C152.472 31.6927 152.571 31.7183 152.689 31.744C152.912 31.7917 153.105 31.843 153.266 31.898C153.431 31.9529 153.559 32.0336 153.651 32.1399C153.742 32.2425 153.786 32.3928 153.783 32.5908C153.786 32.7704 153.739 32.9298 153.64 33.0691C153.544 33.2084 153.407 33.3184 153.227 33.399C153.048 33.476 152.833 33.5145 152.584 33.5145Z" fill="#767676"/>
<path d="M74.2341 0.861957L69.3551 6.50244L68.37 0.198023H73.2855L74.2341 0.861957Z" fill="#FFE976"/>
<path d="M61.3761 2.66069L68.37 0.198023L69.3551 6.50244L61.3761 2.66069Z" fill="#FDC591"/>
<path d="M69.3551 6.50244L64.2328 12.2159L61.3761 2.66069L69.3551 6.50244Z" fill="#FFDDA0"/>
<path d="M64.2328 12.2159L56.0567 6.69948L61.3761 2.66069L64.2328 12.2159Z" fill="#F36A95"/>
<path d="M69.8477 21.968L64.2328 12.2159L74.182 13.1024L69.8477 21.968Z" fill="#FDC591"/>
<path d="M74.2341 13.1024V28.2606L69.8477 21.968L74.182 13.1024L74.2341 13.1024Z" fill="#FFE976"/>
<path d="M69.3551 6.50244L74.182 13.1024L64.2328 12.2159L69.3551 6.50244Z" fill="#FFC164"/>
<path d="M74.2341 13.1024L74.182 13.1024L69.3551 6.50244L74.2341 0.861957L74.2341 13.1024Z" fill="#FFD952"/>
<path d="M74.2341 28.2606L74.2341 33.6903L73.2904 34.4754L68.37 34.3798L74.2341 28.2606Z" fill="#FFDDA0"/>
<path d="M69.8477 21.968L74.2341 28.2606L65.9073 26.7948L69.8477 21.968Z" fill="#FCF396"/>
<path d="M74.2341 28.2606L68.37 34.3798L65.9073 26.7948L74.2341 28.2606Z" fill="#FFEE8A"/>
<path d="M64.2328 12.2159L69.8477 21.968H62.8537L64.2328 12.2159Z" fill="#FFE976"/>
<path d="M69.8477 21.968L65.9073 26.7948L62.8537 21.968H69.8477Z" fill="#FCD87D"/>
<path d="M65.9073 26.7948L68.37 34.3798L61.3761 31.9171L65.9073 26.7948Z" fill="#FFDE6A"/>
<path d="M62.8537 21.968L65.9073 26.7948L56.0567 27.8813L62.8537 21.968Z" fill="#FFA2BF"/>
<path d="M65.9073 26.7948L61.3761 31.9171L56.0567 27.8813L65.9073 26.7948Z" fill="#FFD6E3"/>
<path d="M64.2328 12.2159L62.8537 21.968L54.9988 17.2889L64.2328 12.2159Z" fill="#FF9EBC"/>
<path d="M64.2328 12.2159L54.9988 17.2889L56.0567 6.69948L64.2328 12.2159Z" fill="#FD86AB"/>
<path d="M62.8537 21.968L56.0567 27.8813L54.9988 17.2889L62.8537 21.968Z" fill="#FFAED7"/>
<path d="M56.0567 6.69948L54.9988 17.2889L51.9993 8.66957L56.0567 6.69948Z" fill="#139C83"/>
<path d="M54.9988 17.2889L56.0567 27.8813L52.0318 25.9082L54.9988 17.2889Z" fill="#4FC57E"/>
<path d="M51.9993 8.66957L54.9988 17.2889L40.3942 15.0725L51.9993 8.66957Z" fill="#B2EA9F"/>
<path d="M54.9988 17.2889L52.0318 25.9082H45.2466L54.9988 17.2889Z" fill="#9EDE88"/>
<path d="M54.9988 17.2889L45.2466 25.9082L40.3942 15.0725L54.9988 17.2889Z" fill="#73E3B4"/>
<path d="M51.9993 8.66957L40.3942 15.0725L31.7207 8.66957L51.9993 8.66957Z" fill="#6EDE9B"/>
<path d="M40.3942 15.0725L45.2466 25.9082L36.3791 25.9082L40.3942 15.0725Z" fill="#29ADD0"/>
<path d="M40.3942 15.0725L36.3791 25.9082L28.0809 21.968L40.3942 15.0725Z" fill="#61C1DA"/>
<path d="M40.3942 15.0725L28.0809 21.968L31.7207 8.66957L40.3942 15.0725Z" fill="#AFE9EB"/>
<path d="M36.3791 25.9082H13.7857L28.0809 21.968L36.3791 25.9082Z" fill="#109EC3"/>
<path d="M31.7207 8.66957L28.0809 21.968L20.4959 14.974L31.7207 8.66957Z" fill="#67D3EF"/>
<path d="M31.7207 8.66957L20.4959 14.974L8.97062 8.66957H31.7207Z" fill="#A6C9FE"/>
<path d="M28.0809 21.968L13.7857 25.9082L20.4959 14.974L28.0809 21.968Z" fill="#6F8FE0"/>
<path d="M20.4959 14.974L13.7857 25.9082L10.0541 20.8844L20.4959 14.974Z" fill="#7B6FE0"/>
<path d="M20.4959 14.974L10.0541 20.8844L8.97062 8.66957L20.4959 14.974Z" fill="#B4ACF9"/>
<path d="M10.0541 20.8844L13.7857 25.9082L2.56767 25.9082L10.0541 20.8844Z" fill="#9285FF"/>
<path d="M8.97062 8.66957L10.0541 20.8844L0.0134277 11.2977L8.97062 8.66957Z" fill="#C5BEFF"/>
<path d="M10.0541 20.8844L2.56767 25.9082L0.0134277 23.3963L10.0541 20.8844Z" fill="#ABA1FD"/>
<path d="M10.0541 20.8844L0.0134277 23.3963V11.2977L10.0541 20.8844Z" fill="#BBB3FD"/>
<path d="M8.97062 8.66957L0.0134277 11.2977L2.5677 8.66957H8.97062Z" fill="#D4CFFC"/>
<path d="M78.2237 0.0502625C79.3117 0.0502625 80.1938 0.93232 80.1938 2.02039V32.4589C80.1938 33.547 79.3117 34.429 78.2237 34.429C77.1356 34.429 76.2535 33.547 76.2535 32.4589V2.02039C76.2535 0.932318 77.1356 0.0502625 78.2237 0.0502625Z" fill="#D3D3D3"/>
</svg>
