<svg width="24" height="25" viewBox="0 0 24 25" fill="none" xmlns="http://www.w3.org/2000/svg">
<g clip-path="url(#clip0_560_13540)">
<path d="M23.766 12.6676C23.766 11.8519 23.6999 11.0317 23.5588 10.2292H12.24V14.8502H18.7217C18.4528 16.3406 17.5885 17.659 16.323 18.4967V21.4951H20.19C22.4608 19.4051 23.766 16.3185 23.766 12.6676Z" fill="#4285F4"/>
<path d="M12.2401 24.3921C15.4766 24.3921 18.2059 23.3294 20.1945 21.4951L16.3276 18.4968C15.2517 19.2287 13.8627 19.6432 12.2445 19.6432C9.11388 19.6432 6.45946 17.5311 5.50705 14.6915H1.5166V17.7825C3.55371 21.8346 7.7029 24.3921 12.2401 24.3921Z" fill="#34A853"/>
<path d="M5.50253 14.6916C4.99987 13.2012 4.99987 11.5874 5.50253 10.097V7.0061H1.51649C-0.18551 10.3969 -0.18551 14.3917 1.51649 17.7825L5.50253 14.6916Z" fill="#FBBC04"/>
<path d="M12.2401 5.1409C13.9509 5.11444 15.6044 5.7582 16.8434 6.9399L20.2695 3.51385C18.1001 1.47674 15.2208 0.356769 12.2401 0.392044C7.7029 0.392044 3.55371 2.94946 1.5166 7.00604L5.50264 10.097C6.45064 7.25297 9.10947 5.1409 12.2401 5.1409Z" fill="#EA4335"/>
</g>
<defs>
<clipPath id="clip0_560_13540">
<rect width="24" height="24" fill="white" transform="translate(0 0.391235)"/>
</clipPath>
</defs>
</svg>
