<svg width="25" height="25" viewBox="0 0 25 25" fill="none" xmlns="http://www.w3.org/2000/svg">
<path d="M20 8.10864H17V5.85864C17 4.66517 16.5259 3.52058 15.682 2.67666C14.8381 1.83275 13.6935 1.35864 12.5 1.35864C11.3065 1.35864 10.1619 1.83275 9.31802 2.67666C8.47411 3.52058 8 4.66517 8 5.85864V8.10864H5C4.60218 8.10864 4.22064 8.26668 3.93934 8.54798C3.65804 8.82929 3.5 9.21082 3.5 9.60864V20.1086C3.5 20.5065 3.65804 20.888 3.93934 21.1693C4.22064 21.4506 4.60218 21.6086 5 21.6086H20C20.3978 21.6086 20.7794 21.4506 21.0607 21.1693C21.342 20.888 21.5 20.5065 21.5 20.1086V9.60864C21.5 9.21082 21.342 8.82929 21.0607 8.54798C20.7794 8.26668 20.3978 8.10864 20 8.10864ZM9.5 5.85864C9.5 5.06299 9.81607 4.29993 10.3787 3.73732C10.9413 3.17471 11.7044 2.85864 12.5 2.85864C13.2956 2.85864 14.0587 3.17471 14.6213 3.73732C15.1839 4.29993 15.5 5.06299 15.5 5.85864V8.10864H9.5V5.85864ZM20 20.1086H5V9.60864H20V20.1086Z" fill="#8B8985"/>
</svg>
