<svg width="604" height="1000" viewBox="0 0 604 1000" fill="none" xmlns="http://www.w3.org/2000/svg">
<g clip-path="url(#clip0_1032_6788)" filter="url(#filter0_d_1032_6788)">
<rect width="600" height="1000" fill="white"/>
<g filter="url(#filter1_f_1032_6788)">
<path d="M400.605 35C400.605 136.344 198.924 156.932 169.652 156.932C140.381 156.932 -208.5 168 -7 -15.5C-7 -116.844 418.605 -34.5 127.605 -182C156.876 -182 400.605 -66.3443 400.605 35Z" fill="url(#paint0_linear_1032_6788)"/>
<path d="M661.566 487.304C661.566 588.648 669.423 620.5 640.152 620.5C610.881 620.5 185.105 649 386.605 465.5C386.605 364.156 734.519 407.304 443.519 259.804C472.791 259.804 661.566 385.96 661.566 487.304Z" fill="url(#paint1_linear_1032_6788)"/>
<path d="M663.652 834.735C663.652 936.079 679.654 1091.77 595.153 1070.5C644.106 1070.5 328.152 1010.51 529.652 827.013C529.652 725.669 820.652 1027.51 529.652 880.013C558.923 880.013 663.652 733.391 663.652 834.735Z" fill="url(#paint2_linear_1032_6788)"/>
<path d="M262.786 390.932C262.786 492.276 185.424 422 156.153 422C126.882 422 -88.2145 508.932 113.286 325.432C113.286 224.088 445.833 487.932 154.833 340.432C184.104 340.432 262.786 289.588 262.786 390.932Z" fill="url(#paint3_linear_1032_6788)"/>
<path d="M663.652 38C657.652 140 688.152 169.5 558.329 153C529.058 153 303.829 153 505.329 -30.5C505.329 -131.844 837.876 132 546.876 -15.5C576.147 -15.5 663.652 -63.3443 663.652 38Z" fill="url(#paint4_linear_1032_6788)"/>
<path d="M509.279 55C503.279 157 533.779 186.5 403.956 170C374.685 170 149.456 170 350.956 -13.5C350.956 -114.844 707 90 416 -57.5C445.271 -57.5 509.279 -46.3443 509.279 55Z" fill="url(#paint5_linear_1032_6788)"/>
<path d="M286.428 210.432C85.9619 184.432 310.928 341.932 181.105 325.432C151.834 325.432 -177.457 326.608 24.0428 143.108C24.0428 41.7634 460.652 304.432 169.652 156.932C198.924 156.932 286.428 109.088 286.428 210.432Z" fill="url(#paint6_linear_1032_6788)"/>
<path d="M456.279 712.013C255.812 686.013 480.779 843.513 350.956 827.013C321.685 827.013 96.4556 827.013 297.956 643.513C297.956 542.169 630.503 806.013 339.503 658.513C368.774 658.513 456.279 610.669 456.279 712.013Z" fill="url(#paint7_linear_1032_6788)"/>
<path d="M443.519 259.804C243.053 233.804 468.019 391.304 338.196 374.804C308.925 374.804 83.6962 374.804 285.196 191.304C285.196 89.9596 617.743 353.804 326.743 206.304C356.014 206.304 443.519 158.46 443.519 259.804Z" fill="url(#paint8_linear_1032_6788)"/>
<path d="M339.428 555.804C138.962 529.804 363.928 687.304 234.105 670.804C204.834 670.804 -133.729 553 67.771 369.5C67.771 268.156 513.652 649.804 222.652 502.304C251.924 502.304 339.428 454.46 339.428 555.804Z" fill="url(#paint9_linear_1032_6788)"/>
<path d="M576.583 271.804C576.583 373.148 509.354 389.804 480.082 389.804C450.811 389.804 225.582 389.804 427.082 206.304C427.082 104.96 759.63 368.804 468.63 221.304C497.901 221.304 576.583 170.46 576.583 271.804Z" fill="url(#paint10_linear_1032_6788)"/>
<path d="M127.605 827.013C127.605 928.357 185.424 1003.23 156.153 1003.23C-7 980 -208.5 924.5 -7 741C-7 639.656 435.7 982.235 144.7 834.735C173.971 834.735 127.605 725.669 127.605 827.013Z" fill="url(#paint11_linear_1032_6788)"/>
<path d="M456.279 913.902C456.279 1015.25 389.05 1031.9 359.779 1031.9C330.507 1031.9 -18.6771 1036.72 182.823 853.223C182.823 751.879 553.786 888.5 262.786 741C292.057 741 456.279 812.557 456.279 913.902Z" fill="url(#paint12_linear_1032_6788)"/>
<path d="M637.605 694.013C637.605 795.357 570.376 812.013 541.105 812.013C511.834 812.013 225.582 739.304 427.082 555.804C427.082 454.46 820.652 791.013 529.652 643.513C558.923 643.513 637.605 592.669 637.605 694.013Z" fill="url(#paint13_linear_1032_6788)"/>
<path d="M305.108 707.661C104.641 681.661 329.608 839.161 199.784 822.661C170.513 822.661 -296 404.804 -94.5 221.304C-94.5 119.96 479.332 801.661 188.332 654.161C217.603 654.161 305.108 606.317 305.108 707.661Z" fill="url(#paint14_linear_1032_6788)"/>
<path d="M480.082 389.804C279.616 363.804 504.582 521.304 374.759 504.804C345.488 504.804 102.306 568 303.806 384.5C303.806 283.156 654.306 483.804 363.306 336.304C392.577 336.304 480.082 288.46 480.082 389.804Z" fill="url(#paint15_linear_1032_6788)"/>
<path d="M661.566 255C461.1 229 755.976 438.5 626.153 422C596.882 422 345.376 258.5 546.876 75C546.876 -26.3443 661.566 417.5 636.083 143.108C665.354 143.108 661.566 153.656 661.566 255Z" fill="url(#paint16_linear_1032_6788)"/>
<path d="M661.566 255C648.653 451 709.153 390.932 553.613 369.5C524.342 369.5 299.113 369.5 500.613 186C500.613 84.6559 833.161 348.5 542.161 201C571.432 201 661.566 153.656 661.566 255Z" fill="url(#paint17_linear_1032_6788)"/>
</g>
</g>
<defs>
<filter id="filter0_d_1032_6788" x="-4" y="0" width="608" height="1008" filterUnits="userSpaceOnUse" color-interpolation-filters="sRGB">
<feFlood flood-opacity="0" result="BackgroundImageFix"/>
<feColorMatrix in="SourceAlpha" type="matrix" values="0 0 0 0 0 0 0 0 0 0 0 0 0 0 0 0 0 0 127 0" result="hardAlpha"/>
<feOffset dy="4"/>
<feGaussianBlur stdDeviation="2"/>
<feComposite in2="hardAlpha" operator="out"/>
<feColorMatrix type="matrix" values="0 0 0 0 0 0 0 0 0 0 0 0 0 0 0 0 0 0 0.25 0"/>
<feBlend mode="normal" in2="BackgroundImageFix" result="effect1_dropShadow_1032_6788"/>
<feBlend mode="normal" in="SourceGraphic" in2="effect1_dropShadow_1032_6788" result="shape"/>
</filter>
<filter id="filter1_f_1032_6788" x="-294.841" y="-332" width="1111.09" height="1554.47" filterUnits="userSpaceOnUse" color-interpolation-filters="sRGB">
<feFlood flood-opacity="0" result="BackgroundImageFix"/>
<feBlend mode="normal" in="SourceGraphic" in2="BackgroundImageFix" result="shape"/>
<feGaussianBlur stdDeviation="75" result="effect1_foregroundBlur_1032_6788"/>
</filter>
<linearGradient id="paint0_linear_1032_6788" x1="126.153" y1="-3.99999" x2="572" y2="1026" gradientUnits="userSpaceOnUse">
<stop stop-color="#9285FF"/>
<stop offset="0.140625" stop-color="#C5BEFF"/>
<stop offset="0.276042" stop-color="#67D3EF"/>
<stop offset="0.390625" stop-color="#73E3B4"/>
<stop offset="0.5" stop-color="#9EDE88"/>
<stop offset="0.614583" stop-color="#FFE976"/>
<stop offset="0.697917" stop-color="#FDC591"/>
<stop offset="0.796875" stop-color="#FD86AB"/>
<stop offset="0.921875" stop-color="#FF9EBC"/>
</linearGradient>
<linearGradient id="paint1_linear_1032_6788" x1="126.153" y1="-3.99999" x2="572" y2="1026" gradientUnits="userSpaceOnUse">
<stop stop-color="#9285FF"/>
<stop offset="0.140625" stop-color="#C5BEFF"/>
<stop offset="0.276042" stop-color="#67D3EF"/>
<stop offset="0.390625" stop-color="#73E3B4"/>
<stop offset="0.5" stop-color="#9EDE88"/>
<stop offset="0.614583" stop-color="#FFE976"/>
<stop offset="0.697917" stop-color="#FDC591"/>
<stop offset="0.796875" stop-color="#FD86AB"/>
<stop offset="0.921875" stop-color="#FF9EBC"/>
</linearGradient>
<linearGradient id="paint2_linear_1032_6788" x1="126.153" y1="-3.99999" x2="572" y2="1026" gradientUnits="userSpaceOnUse">
<stop stop-color="#9285FF"/>
<stop offset="0.140625" stop-color="#C5BEFF"/>
<stop offset="0.276042" stop-color="#67D3EF"/>
<stop offset="0.390625" stop-color="#73E3B4"/>
<stop offset="0.5" stop-color="#9EDE88"/>
<stop offset="0.614583" stop-color="#FFE976"/>
<stop offset="0.697917" stop-color="#FDC591"/>
<stop offset="0.796875" stop-color="#FD86AB"/>
<stop offset="0.921875" stop-color="#FF9EBC"/>
</linearGradient>
<linearGradient id="paint3_linear_1032_6788" x1="126.153" y1="-3.99999" x2="572" y2="1026" gradientUnits="userSpaceOnUse">
<stop stop-color="#9285FF"/>
<stop offset="0.140625" stop-color="#C5BEFF"/>
<stop offset="0.276042" stop-color="#67D3EF"/>
<stop offset="0.390625" stop-color="#73E3B4"/>
<stop offset="0.5" stop-color="#9EDE88"/>
<stop offset="0.614583" stop-color="#FFE976"/>
<stop offset="0.697917" stop-color="#FDC591"/>
<stop offset="0.796875" stop-color="#FD86AB"/>
<stop offset="0.921875" stop-color="#FF9EBC"/>
</linearGradient>
<linearGradient id="paint4_linear_1032_6788" x1="126.153" y1="-3.99999" x2="572" y2="1026" gradientUnits="userSpaceOnUse">
<stop stop-color="#9285FF"/>
<stop offset="0.140625" stop-color="#C5BEFF"/>
<stop offset="0.276042" stop-color="#67D3EF"/>
<stop offset="0.390625" stop-color="#73E3B4"/>
<stop offset="0.5" stop-color="#9EDE88"/>
<stop offset="0.614583" stop-color="#FFE976"/>
<stop offset="0.697917" stop-color="#FDC591"/>
<stop offset="0.796875" stop-color="#FD86AB"/>
<stop offset="0.921875" stop-color="#FF9EBC"/>
</linearGradient>
<linearGradient id="paint5_linear_1032_6788" x1="126.153" y1="-3.99999" x2="572" y2="1026" gradientUnits="userSpaceOnUse">
<stop stop-color="#9285FF"/>
<stop offset="0.140625" stop-color="#C5BEFF"/>
<stop offset="0.276042" stop-color="#67D3EF"/>
<stop offset="0.390625" stop-color="#73E3B4"/>
<stop offset="0.5" stop-color="#9EDE88"/>
<stop offset="0.614583" stop-color="#FFE976"/>
<stop offset="0.697917" stop-color="#FDC591"/>
<stop offset="0.796875" stop-color="#FD86AB"/>
<stop offset="0.921875" stop-color="#FF9EBC"/>
</linearGradient>
<linearGradient id="paint6_linear_1032_6788" x1="126.153" y1="-3.99999" x2="572" y2="1026" gradientUnits="userSpaceOnUse">
<stop stop-color="#9285FF"/>
<stop offset="0.140625" stop-color="#C5BEFF"/>
<stop offset="0.276042" stop-color="#67D3EF"/>
<stop offset="0.390625" stop-color="#73E3B4"/>
<stop offset="0.5" stop-color="#9EDE88"/>
<stop offset="0.614583" stop-color="#FFE976"/>
<stop offset="0.697917" stop-color="#FDC591"/>
<stop offset="0.796875" stop-color="#FD86AB"/>
<stop offset="0.921875" stop-color="#FF9EBC"/>
</linearGradient>
<linearGradient id="paint7_linear_1032_6788" x1="126.153" y1="-3.99999" x2="572" y2="1026" gradientUnits="userSpaceOnUse">
<stop stop-color="#9285FF"/>
<stop offset="0.140625" stop-color="#C5BEFF"/>
<stop offset="0.276042" stop-color="#67D3EF"/>
<stop offset="0.390625" stop-color="#73E3B4"/>
<stop offset="0.5" stop-color="#9EDE88"/>
<stop offset="0.614583" stop-color="#FFE976"/>
<stop offset="0.697917" stop-color="#FDC591"/>
<stop offset="0.796875" stop-color="#FD86AB"/>
<stop offset="0.921875" stop-color="#FF9EBC"/>
</linearGradient>
<linearGradient id="paint8_linear_1032_6788" x1="126.153" y1="-3.99999" x2="572" y2="1026" gradientUnits="userSpaceOnUse">
<stop stop-color="#9285FF"/>
<stop offset="0.140625" stop-color="#C5BEFF"/>
<stop offset="0.276042" stop-color="#67D3EF"/>
<stop offset="0.390625" stop-color="#73E3B4"/>
<stop offset="0.5" stop-color="#9EDE88"/>
<stop offset="0.614583" stop-color="#FFE976"/>
<stop offset="0.697917" stop-color="#FDC591"/>
<stop offset="0.796875" stop-color="#FD86AB"/>
<stop offset="0.921875" stop-color="#FF9EBC"/>
</linearGradient>
<linearGradient id="paint9_linear_1032_6788" x1="126.153" y1="-3.99999" x2="572" y2="1026" gradientUnits="userSpaceOnUse">
<stop stop-color="#9285FF"/>
<stop offset="0.140625" stop-color="#C5BEFF"/>
<stop offset="0.276042" stop-color="#67D3EF"/>
<stop offset="0.390625" stop-color="#73E3B4"/>
<stop offset="0.5" stop-color="#9EDE88"/>
<stop offset="0.614583" stop-color="#FFE976"/>
<stop offset="0.697917" stop-color="#FDC591"/>
<stop offset="0.796875" stop-color="#FD86AB"/>
<stop offset="0.921875" stop-color="#FF9EBC"/>
</linearGradient>
<linearGradient id="paint10_linear_1032_6788" x1="126.153" y1="-3.99999" x2="572" y2="1026" gradientUnits="userSpaceOnUse">
<stop stop-color="#9285FF"/>
<stop offset="0.140625" stop-color="#C5BEFF"/>
<stop offset="0.276042" stop-color="#67D3EF"/>
<stop offset="0.390625" stop-color="#73E3B4"/>
<stop offset="0.5" stop-color="#9EDE88"/>
<stop offset="0.614583" stop-color="#FFE976"/>
<stop offset="0.697917" stop-color="#FDC591"/>
<stop offset="0.796875" stop-color="#FD86AB"/>
<stop offset="0.921875" stop-color="#FF9EBC"/>
</linearGradient>
<linearGradient id="paint11_linear_1032_6788" x1="126.153" y1="-3.99999" x2="572" y2="1026" gradientUnits="userSpaceOnUse">
<stop stop-color="#9285FF"/>
<stop offset="0.140625" stop-color="#C5BEFF"/>
<stop offset="0.276042" stop-color="#67D3EF"/>
<stop offset="0.390625" stop-color="#73E3B4"/>
<stop offset="0.5" stop-color="#9EDE88"/>
<stop offset="0.614583" stop-color="#FFE976"/>
<stop offset="0.697917" stop-color="#FDC591"/>
<stop offset="0.796875" stop-color="#FD86AB"/>
<stop offset="0.921875" stop-color="#FF9EBC"/>
</linearGradient>
<linearGradient id="paint12_linear_1032_6788" x1="126.153" y1="-3.99999" x2="572" y2="1026" gradientUnits="userSpaceOnUse">
<stop stop-color="#9285FF"/>
<stop offset="0.140625" stop-color="#C5BEFF"/>
<stop offset="0.276042" stop-color="#67D3EF"/>
<stop offset="0.390625" stop-color="#73E3B4"/>
<stop offset="0.5" stop-color="#9EDE88"/>
<stop offset="0.614583" stop-color="#FFE976"/>
<stop offset="0.697917" stop-color="#FDC591"/>
<stop offset="0.796875" stop-color="#FD86AB"/>
<stop offset="0.921875" stop-color="#FF9EBC"/>
</linearGradient>
<linearGradient id="paint13_linear_1032_6788" x1="126.153" y1="-3.99999" x2="572" y2="1026" gradientUnits="userSpaceOnUse">
<stop stop-color="#9285FF"/>
<stop offset="0.140625" stop-color="#C5BEFF"/>
<stop offset="0.276042" stop-color="#67D3EF"/>
<stop offset="0.390625" stop-color="#73E3B4"/>
<stop offset="0.5" stop-color="#9EDE88"/>
<stop offset="0.614583" stop-color="#FFE976"/>
<stop offset="0.697917" stop-color="#FDC591"/>
<stop offset="0.796875" stop-color="#FD86AB"/>
<stop offset="0.921875" stop-color="#FF9EBC"/>
</linearGradient>
<linearGradient id="paint14_linear_1032_6788" x1="126.153" y1="-3.99999" x2="572" y2="1026" gradientUnits="userSpaceOnUse">
<stop stop-color="#9285FF"/>
<stop offset="0.140625" stop-color="#C5BEFF"/>
<stop offset="0.276042" stop-color="#67D3EF"/>
<stop offset="0.390625" stop-color="#73E3B4"/>
<stop offset="0.5" stop-color="#9EDE88"/>
<stop offset="0.614583" stop-color="#FFE976"/>
<stop offset="0.697917" stop-color="#FDC591"/>
<stop offset="0.796875" stop-color="#FD86AB"/>
<stop offset="0.921875" stop-color="#FF9EBC"/>
</linearGradient>
<linearGradient id="paint15_linear_1032_6788" x1="126.153" y1="-3.99999" x2="572" y2="1026" gradientUnits="userSpaceOnUse">
<stop stop-color="#9285FF"/>
<stop offset="0.140625" stop-color="#C5BEFF"/>
<stop offset="0.276042" stop-color="#67D3EF"/>
<stop offset="0.390625" stop-color="#73E3B4"/>
<stop offset="0.5" stop-color="#9EDE88"/>
<stop offset="0.614583" stop-color="#FFE976"/>
<stop offset="0.697917" stop-color="#FDC591"/>
<stop offset="0.796875" stop-color="#FD86AB"/>
<stop offset="0.921875" stop-color="#FF9EBC"/>
</linearGradient>
<linearGradient id="paint16_linear_1032_6788" x1="126.153" y1="-3.99999" x2="572" y2="1026" gradientUnits="userSpaceOnUse">
<stop stop-color="#9285FF"/>
<stop offset="0.140625" stop-color="#C5BEFF"/>
<stop offset="0.276042" stop-color="#67D3EF"/>
<stop offset="0.390625" stop-color="#73E3B4"/>
<stop offset="0.5" stop-color="#9EDE88"/>
<stop offset="0.614583" stop-color="#FFE976"/>
<stop offset="0.697917" stop-color="#FDC591"/>
<stop offset="0.796875" stop-color="#FD86AB"/>
<stop offset="0.921875" stop-color="#FF9EBC"/>
</linearGradient>
<linearGradient id="paint17_linear_1032_6788" x1="126.153" y1="-3.99999" x2="572" y2="1026" gradientUnits="userSpaceOnUse">
<stop stop-color="#9285FF"/>
<stop offset="0.140625" stop-color="#C5BEFF"/>
<stop offset="0.276042" stop-color="#67D3EF"/>
<stop offset="0.390625" stop-color="#73E3B4"/>
<stop offset="0.5" stop-color="#9EDE88"/>
<stop offset="0.614583" stop-color="#FFE976"/>
<stop offset="0.697917" stop-color="#FDC591"/>
<stop offset="0.796875" stop-color="#FD86AB"/>
<stop offset="0.921875" stop-color="#FF9EBC"/>
</linearGradient>
<clipPath id="clip0_1032_6788">
<rect width="600" height="1000" fill="white"/>
</clipPath>
</defs>
</svg>
