<svg width="17" height="17" viewBox="0 0 17 17" fill="none" xmlns="http://www.w3.org/2000/svg">
<g id="X">
<path id="Vector" d="M13.6917 12.6463C13.7381 12.6927 13.775 12.7479 13.8001 12.8086C13.8253 12.8693 13.8382 12.9343 13.8382 13C13.8382 13.0657 13.8253 13.1308 13.8001 13.1915C13.775 13.2522 13.7381 13.3073 13.6917 13.3538C13.6452 13.4002 13.5901 13.4371 13.5294 13.4622C13.4687 13.4874 13.4036 13.5003 13.3379 13.5003C13.2722 13.5003 13.2072 13.4874 13.1465 13.4622C13.0858 13.4371 13.0306 13.4002 12.9842 13.3538L8.83792 9.20691L4.69167 13.3538C4.59785 13.4476 4.47061 13.5003 4.33792 13.5003C4.20524 13.5003 4.07799 13.4476 3.98417 13.3538C3.89035 13.26 3.83765 13.1327 3.83765 13C3.83765 12.8674 3.89035 12.7401 3.98417 12.6463L8.13105 8.50003L3.98417 4.35378C3.89035 4.25996 3.83765 4.13272 3.83765 4.00003C3.83765 3.86735 3.89035 3.7401 3.98417 3.64628C4.07799 3.55246 4.20524 3.49976 4.33792 3.49976C4.47061 3.49976 4.59785 3.55246 4.69167 3.64628L8.83792 7.79316L12.9842 3.64628C13.078 3.55246 13.2052 3.49976 13.3379 3.49976C13.4706 3.49976 13.5979 3.55246 13.6917 3.64628C13.7855 3.7401 13.8382 3.86735 13.8382 4.00003C13.8382 4.13272 13.7855 4.25996 13.6917 4.35378L9.5448 8.50003L13.6917 12.6463Z" fill="#1C1B1A"/>
</g>
</svg>
